<svg width="117" height="21" viewBox="0 0 117 21" fill="none" xmlns="http://www.w3.org/2000/svg">
<path d="M11.98 3.032V6.296H5.02V10.016H10.396V13.136H5.02V20H0.916V3.032H11.98ZM18.1919 2.24V20H14.0879V2.24H18.1919ZM33.7454 12.944C33.7454 13.28 33.7054 13.648 33.6254 14.048H24.3374C24.3854 15.056 24.6414 15.784 25.1054 16.232C25.5694 16.664 26.1614 16.88 26.8814 16.88C27.4894 16.88 27.9934 16.728 28.3934 16.424C28.7934 16.12 29.0574 15.728 29.1854 15.248H33.5294C33.3534 16.192 32.9694 17.04 32.3774 17.792C31.7854 18.528 31.0334 19.112 30.1214 19.544C29.2094 19.96 28.1934 20.168 27.0734 20.168C25.7614 20.168 24.5934 19.896 23.5694 19.352C22.5614 18.792 21.7694 17.992 21.1934 16.952C20.6174 15.912 20.3294 14.696 20.3294 13.304C20.3294 11.896 20.6094 10.68 21.1694 9.656C21.7454 8.616 22.5454 7.824 23.5694 7.28C24.5934 6.72 25.7614 6.44 27.0734 6.44C28.4014 6.44 29.5694 6.712 30.5774 7.256C31.5854 7.8 32.3614 8.568 32.9054 9.56C33.4654 10.536 33.7454 11.664 33.7454 12.944ZM29.5934 12.32C29.6094 11.44 29.3694 10.784 28.8734 10.352C28.3934 9.904 27.7934 9.68 27.0734 9.68C26.3214 9.68 25.6974 9.904 25.2014 10.352C24.7054 10.8 24.4254 11.456 24.3614 12.32H29.5934ZM44.2608 20L41.5247 16.184L39.2928 20H34.7808L39.2208 13.016L34.6128 6.608H39.2208L41.9328 10.376L44.1648 6.608H48.6768L44.1408 13.424L48.8688 20H44.2608ZM50.032 2.84C50.032 2.216 50.256 1.704 50.704 1.304C51.152 0.887999 51.744 0.679998 52.48 0.679998C53.216 0.679998 53.808 0.887999 54.256 1.304C54.704 1.704 54.928 2.216 54.928 2.84C54.928 3.448 54.704 3.96 54.256 4.376C53.808 4.776 53.216 4.976 52.48 4.976C51.744 4.976 51.152 4.776 50.704 4.376C50.256 3.96 50.032 3.448 50.032 2.84ZM54.52 6.608V20H50.416V6.608H54.52Z" fill="#4B49AC"/>
<path d="M68.4175 3.032V6.296H61.4575V10.016H66.8335V13.136H61.4575V20H57.3535V3.032H68.4175ZM83.8454 6.608V20H79.7174V17.576C79.3334 18.36 78.7574 18.984 77.9894 19.448C77.2374 19.912 76.3574 20.144 75.3494 20.144C73.8134 20.144 72.5894 19.632 71.6774 18.608C70.7814 17.584 70.3334 16.176 70.3334 14.384V6.608H74.4134V13.88C74.4134 14.792 74.6454 15.504 75.1094 16.016C75.5894 16.512 76.2294 16.76 77.0294 16.76C77.8614 16.76 78.5174 16.496 78.9974 15.968C79.4774 15.44 79.7174 14.688 79.7174 13.712V6.608H83.8454ZM95.1698 6.464C96.7058 6.464 97.9218 6.976 98.8178 8C99.7298 9.024 100.186 10.432 100.186 12.224V20H96.0818V12.704C96.0818 11.808 95.8418 11.112 95.3618 10.616C94.8978 10.104 94.2738 9.848 93.4898 9.848C92.6578 9.848 91.9938 10.112 91.4978 10.64C91.0178 11.168 90.7778 11.92 90.7778 12.896V20H86.6738V6.608H90.7778V9.056C91.1618 8.256 91.7298 7.624 92.4818 7.16C93.2498 6.696 94.1458 6.464 95.1698 6.464ZM107.981 6.44C109.005 6.44 109.885 6.672 110.621 7.136C111.357 7.6 111.893 8.232 112.229 9.032V2.24H116.333V20H112.229V17.576C111.893 18.376 111.357 19.008 110.621 19.472C109.885 19.936 109.005 20.168 107.981 20.168C106.877 20.168 105.885 19.896 105.005 19.352C104.141 18.792 103.453 17.992 102.941 16.952C102.445 15.912 102.197 14.696 102.197 13.304C102.197 11.896 102.445 10.68 102.941 9.656C103.453 8.616 104.141 7.824 105.005 7.28C105.885 6.72 106.877 6.44 107.981 6.44ZM109.301 10.04C108.421 10.04 107.709 10.328 107.165 10.904C106.637 11.48 106.373 12.28 106.373 13.304C106.373 14.328 106.637 15.128 107.165 15.704C107.709 16.28 108.421 16.568 109.301 16.568C110.165 16.568 110.869 16.272 111.413 15.68C111.973 15.088 112.253 14.296 112.253 13.304C112.253 12.296 111.973 11.504 111.413 10.928C110.869 10.336 110.165 10.04 109.301 10.04Z" fill="#353535"/>
</svg>
